<svg width="297" height="65" viewBox="0 0 297 65" fill="none" xmlns="http://www.w3.org/2000/svg">
  <path d="M281.598 51.2903C278.725 51.2903 276.146 50.4649 273.86 48.8141C271.575 47.1474 269.765 44.8855 268.432 42.0284C267.114 39.1554 266.456 35.9252 266.456 32.3379C266.456 28.7347 267.114 25.5046 268.432 22.6474C269.765 19.7903 271.575 17.5363 273.86 15.8855C276.146 14.2188 278.725 13.3855 281.598 13.3855C284.471 13.3855 287.043 14.2188 289.313 15.8855C291.598 17.5522 293.408 19.8141 294.741 22.6712C296.075 25.5284 296.741 28.7506 296.741 32.3379C296.741 35.9252 296.075 39.1554 294.741 42.0284C293.424 44.8855 291.622 47.1474 289.336 48.8141C287.051 50.4649 284.471 51.2903 281.598 51.2903ZM281.598 49.7665C284.186 49.7665 286.503 49.0046 288.551 47.4808C290.614 45.957 292.241 43.8776 293.432 41.2427C294.622 38.6077 295.217 35.6395 295.217 32.3379C295.217 29.0363 294.614 26.076 293.408 23.4569C292.217 20.822 290.598 18.7426 288.551 17.2188C286.503 15.6792 284.186 14.9093 281.598 14.9093C279.027 14.9093 276.709 15.6792 274.646 17.2188C272.598 18.7426 270.971 20.822 269.765 23.4569C268.575 26.076 267.979 29.0363 267.979 32.3379C267.979 35.6395 268.575 38.6077 269.765 41.2427C270.956 43.8776 272.575 45.957 274.622 47.4808C276.686 49.0046 279.011 49.7665 281.598 49.7665Z" fill="#FF2E6B"/>
  <path d="M229.18 26.8141V50.5284H226.276V1.76648H229.18V19.7427H229.466C230.323 17.8379 231.688 16.3221 233.561 15.1951C235.45 14.0522 237.712 13.4808 240.347 13.4808C242.807 13.4808 244.974 14.0046 246.847 15.0522C248.72 16.084 250.18 17.5681 251.228 19.5046C252.291 21.4252 252.823 23.7268 252.823 26.4094V50.5284H249.942V26.5284C249.942 23.4014 249.014 20.8935 247.157 19.0046C245.299 17.1157 242.847 16.1713 239.799 16.1713C237.752 16.1713 235.926 16.6157 234.323 17.5046C232.72 18.3935 231.458 19.6395 230.537 21.2427C229.633 22.83 229.18 24.6871 229.18 26.8141Z" fill="#FF2E6B"/>
  <path d="M187.905 27.6712V50.5284H183.667V13.9569H187.786V19.695H188.167C189.024 17.822 190.357 16.322 192.167 15.195C193.992 14.0521 196.246 13.4807 198.929 13.4807C201.389 13.4807 203.548 13.9966 205.405 15.0283C207.278 16.0442 208.73 17.5442 209.762 19.5283C210.809 21.5125 211.333 23.949 211.333 26.8379V50.5284H207.095V27.0998C207.095 24.0998 206.254 21.7268 204.571 19.9807C202.905 18.2347 200.667 17.3617 197.857 17.3617C195.936 17.3617 194.23 17.7744 192.738 18.5998C191.246 19.4252 190.063 20.6156 189.19 22.1712C188.333 23.7109 187.905 25.5442 187.905 27.6712Z" fill="#FF2E6B"/>
  <path d="M163.952 50.5284V13.957H169.571V50.5284H163.952ZM166.809 7.86173C165.714 7.86173 164.769 7.48872 163.976 6.74268C163.198 5.99665 162.809 5.09982 162.809 4.0522C162.809 3.00458 163.198 2.10776 163.976 1.36172C164.769 0.615692 165.714 0.242676 166.809 0.242676C167.904 0.242676 168.841 0.615692 169.618 1.36172C170.412 2.10776 170.809 3.00458 170.809 4.0522C170.809 5.09982 170.412 5.99665 169.618 6.74268C168.841 7.48872 167.904 7.86173 166.809 7.86173Z" fill="#FF2E6B"/>
  <path d="M118.862 64.2427V13.9569H125.814V19.8855H126.409C126.822 19.1236 127.417 18.2426 128.195 17.2426C128.973 16.2426 130.052 15.3696 131.433 14.6236C132.814 13.8617 134.639 13.4807 136.909 13.4807C139.862 13.4807 142.497 14.2267 144.814 15.7188C147.132 17.2109 148.949 19.3617 150.266 22.1712C151.6 24.9807 152.266 28.3617 152.266 32.3141C152.266 36.2664 151.608 39.6553 150.29 42.4807C148.973 45.2903 147.163 47.4569 144.862 48.9808C142.56 50.4887 139.933 51.2427 136.981 51.2427C134.759 51.2427 132.941 50.8696 131.528 50.1236C130.132 49.3776 129.036 48.5046 128.243 47.5046C127.449 46.5046 126.838 45.6157 126.409 44.8379H125.981V64.2427H118.862ZM125.838 32.2426C125.838 34.8141 126.211 37.068 126.957 39.0045C127.703 40.9411 128.782 42.4569 130.195 43.5522C131.608 44.6315 133.338 45.1712 135.385 45.1712C137.512 45.1712 139.29 44.6077 140.719 43.4807C142.147 42.3379 143.227 40.7903 143.957 38.8379C144.703 36.8855 145.076 34.6871 145.076 32.2426C145.076 29.8299 144.711 27.6633 143.981 25.7426C143.266 23.822 142.187 22.3061 140.743 21.195C139.314 20.0839 137.528 19.5283 135.385 19.5283C133.322 19.5283 131.576 20.0601 130.147 21.1236C128.735 22.1871 127.663 23.6712 126.933 25.576C126.203 27.4807 125.838 29.703 125.838 32.2426Z" fill="#FF2E6B"/>
  <path d="M106.289 1.76648V50.5284H97.6696V1.76648H106.289Z" fill="#FF2E6B"/>
  <path d="M70.5308 51.2427C66.7688 51.2427 63.5307 50.4808 60.8165 48.9569C58.118 47.4173 56.0387 45.2427 54.5784 42.4331C53.118 39.6077 52.3879 36.2665 52.3879 32.4093C52.3879 28.6474 53.118 25.3458 54.5784 22.5045C56.0387 19.6633 58.0942 17.449 60.745 15.8617C63.4117 14.2744 66.5387 13.4807 70.126 13.4807C72.5387 13.4807 74.7847 13.8696 76.8641 14.6474C78.9593 15.4093 80.7847 16.5601 82.3403 18.0998C83.9117 19.6394 85.1339 21.576 86.007 23.9093C86.88 26.2268 87.3165 28.941 87.3165 32.0522V34.8379H56.4355V28.5522H77.7689C77.7689 27.0918 77.4514 25.7982 76.8165 24.6712C76.1816 23.5442 75.3006 22.6633 74.1736 22.0283C73.0625 21.3775 71.7689 21.0521 70.2927 21.0521C68.753 21.0521 67.3879 21.4093 66.1974 22.1236C65.0228 22.822 64.1022 23.7664 63.4355 24.9569C62.7688 26.1315 62.4276 27.441 62.4117 28.8855V34.8617C62.4117 36.6712 62.745 38.2347 63.4117 39.5522C64.0942 40.8696 65.0546 41.8855 66.2927 42.5998C67.5308 43.3141 68.999 43.6712 70.6974 43.6712C71.8244 43.6712 72.8562 43.5125 73.7927 43.195C74.7292 42.8776 75.5308 42.4014 76.1974 41.7665C76.8641 41.1315 77.372 40.3538 77.7212 39.4331L87.1022 40.0522C86.626 42.3061 85.6498 44.2744 84.1736 45.9569C82.7133 47.6236 80.8244 48.9252 78.507 49.8617C76.2054 50.7823 73.5466 51.2427 70.5308 51.2427Z" fill="#FF2E6B"/>
  <path d="M0 50.5284V1.76648H11.7857V21.3379H31V1.76648H42.762V50.5284H31V30.9332H11.7857V50.5284H0Z" fill="#FF2E6B"/>
</svg>
