<svg width="106" height="101" viewBox="0 0 106 101" fill="none" xmlns="http://www.w3.org/2000/svg">
  <path d="M84.4164 40.077C104.915 27.91 98.7632 9.01219 93.338 0.660201C84.1786 22.7795 57.6547 16.6611 47.8797 20.079C40.9382 21.9308 31.144 27.4372 25.2621 32.3628C23.9883 33.4296 20.7166 35.7745 20.8775 37.2362C21.3581 39.8857 24.1901 39.61 26.4771 38.1729C33.3048 33.8823 50.6728 25.7922 64.888 28.8517C79.903 34.1052 64.3717 38.5958 59.0187 44.1905C54.8241 50.6336 58.6343 55.2884 60.6717 53.356C68.3641 44.3594 71.7752 47.9633 84.4164 40.077Z" fill="#FF2E6B"/>
  <path d="M21.5838 60.4083C1.0856 72.5754 7.23692 91.4732 12.6621 99.8252C21.8216 77.7059 48.3454 83.8243 58.1204 80.4063C65.062 78.5545 74.8562 73.0481 80.738 68.1226C82.0119 67.0558 85.2835 64.7109 85.1227 63.2492C84.6421 60.5996 81.8101 60.8753 79.5231 62.3125C72.6954 66.603 55.3274 74.6932 41.1121 71.6337C26.0972 66.3801 41.6284 61.8895 46.9814 56.2948C51.1761 49.8518 47.3659 45.197 45.3285 47.1294C37.6361 56.1259 34.225 52.5221 21.5838 60.4083Z" fill="#F4AE0B"/>
</svg>
